<?xml version="1.0" encoding="iso-8859-1"?>
<!-- Generator: Adobe Illustrator 17.1.0, SVG Export Plug-In . SVG Version: 6.00 Build 0)  -->
<!DOCTYPE svg PUBLIC "-//W3C//DTD SVG 1.1//EN" "http://www.w3.org/Graphics/SVG/1.1/DTD/svg11.dtd">
<svg version="1.1" id="Capa_1" xmlns="http://www.w3.org/2000/svg" xmlns:xlink="http://www.w3.org/1999/xlink" x="0px" y="0px"
	 viewBox="0 0 261.25 261.25" style="enable-background:new 0 0 261.25 261.25;" xml:space="preserve">
<path d="M231.385,39C250.293,62.087,261,91.278,261,121.75c0,71.958-58.542,130.5-130.5,130.5S0,193.708,0,121.75
	c0-35.358,13.911-68.463,39.17-93.215c5.917-5.798,15.414-5.701,21.212,0.216s5.701,15.413-0.216,21.212
	C40.713,69.025,30,94.52,30,121.75c0,55.416,45.084,100.5,100.5,100.5s100.333-45.084,100.333-100.5
	c0-21.763-6.916-42.675-19.916-59.781V74c0,8.284-6.716,15-15,15s-15-6.716-15-15V24.006c0-0.002,0-0.004,0-0.004
	C180.917,15.716,187.966,9,196.25,9h50c8.284,0,15,6.716,15,15s-6.716,15-15,15H231.385z"/>
<g>
</g>
<g>
</g>
<g>
</g>
<g>
</g>
<g>
</g>
<g>
</g>
<g>
</g>
<g>
</g>
<g>
</g>
<g>
</g>
<g>
</g>
<g>
</g>
<g>
</g>
<g>
</g>
<g>
</g>
</svg>
